<mxfile host="65bd71144e">
    <diagram name="Context Diagram" id="context-diagram">
        <mxGraphModel dx="101" dy="65" grid="1" gridSize="10" guides="1" tooltips="1" connect="1" arrows="1" fold="1" page="1" pageScale="1" pageWidth="1169" pageHeight="827" math="0" shadow="0">
            <root>
                <mxCell id="0"/>
                <mxCell id="1" parent="0"/>
                <mxCell id="system" value="ระบบแนะนำหลักสูตรภาควิชาเทคโนโลยี สารสนเทศด้วย Chatbot" style="ellipse;whiteSpace=wrap;html=1;fillColor=#e1d5e7;strokeColor=#9673a6;fontSize=14;fontStyle=1;" parent="1" vertex="1">
                    <mxGeometry x="484" y="350" width="200" height="120" as="geometry"/>
                </mxCell>
                <mxCell id="student" value="นักศึกษา&#xa;(Students)" style="rounded=1;whiteSpace=wrap;html=1;fillColor=#d5e8d4;strokeColor=#82b366;fontSize=12;fontStyle=1;" parent="1" vertex="1">
                    <mxGeometry x="150" y="150" width="120" height="60" as="geometry"/>
                </mxCell>
                <mxCell id="instructor" value="อาจารย์&#xa;(Instructors)" style="rounded=1;whiteSpace=wrap;html=1;fillColor=#d5e8d4;strokeColor=#82b366;fontSize=12;fontStyle=1;" vertex="1" parent="1">
                    <mxGeometry x="150" y="310" width="120" height="60" as="geometry"/>
                </mxCell>
                <mxCell id="staff" value="บุคลากร&#xa;(Staff)" style="rounded=1;whiteSpace=wrap;html=1;fillColor=#d5e8d4;strokeColor=#82b366;fontSize=12;fontStyle=1;" parent="1" vertex="1">
                    <mxGeometry x="150" y="520" width="120" height="60" as="geometry"/>
                </mxCell>
                <mxCell id="admin" value="ผู้ดูแลระบบ&#xa;(Admin)" style="rounded=1;whiteSpace=wrap;html=1;fillColor=#d5e8d4;strokeColor=#82b366;fontSize=12;fontStyle=1;" vertex="1" parent="1">
                    <mxGeometry x="150" y="640" width="120" height="60" as="geometry"/>
                </mxCell>
                <mxCell id="firebase" value="Firebase&#xa;(Authentication &amp; Database)" style="rounded=1;whiteSpace=wrap;html=1;fillColor=#fff2cc;strokeColor=#d6b656;fontSize=12;fontStyle=1;" parent="1" vertex="1">
                    <mxGeometry x="800" y="280" width="150" height="80" as="geometry"/>
                </mxCell>
                <mxCell id="n8n" value="n8n Chatbot&#xa;(External Chat Service)" style="rounded=1;whiteSpace=wrap;html=1;fillColor=#fff2cc;strokeColor=#d6b656;fontSize=12;fontStyle=1;" parent="1" vertex="1">
                    <mxGeometry x="800" y="450" width="150" height="80" as="geometry"/>
                </mxCell>
                <mxCell id="flow1" value="ดูแผนการเรียน&#xa;จัดการรายวิชาส่วนตัว&#xa;บันทึกปีการศึกษา" style="edgeStyle=orthogonalEdgeStyle;rounded=0;orthogonalLoop=1;jettySize=auto;html=1;exitX=0.75;exitY=1;exitDx=0;exitDy=0;entryX=0.195;entryY=0.105;entryDx=0;entryDy=0;fontSize=10;fontColor=#0066CC;entryPerimeter=0;" parent="1" source="student" target="system" edge="1">
                    <mxGeometry x="-0.0358" relative="1" as="geometry">
                        <Array as="points">
                            <mxPoint x="240" y="270"/>
                            <mxPoint x="494" y="270"/>
                            <mxPoint x="494" y="363"/>
                        </Array>
                        <mxPoint as="offset"/>
                    </mxGeometry>
                </mxCell>
                <mxCell id="flow2" value="แผนภาพหลักสูตร&#xa;ข้อมูลรายวิชา" style="edgeStyle=orthogonalEdgeStyle;rounded=0;orthogonalLoop=1;jettySize=auto;html=1;exitX=0.305;exitY=0.035;exitDx=0;exitDy=0;entryX=1;entryY=0.5;entryDx=0;entryDy=0;fontSize=10;fontColor=#CC0000;exitPerimeter=0;" parent="1" source="system" target="student" edge="1">
                    <mxGeometry x="0.3767" relative="1" as="geometry">
                        <Array as="points">
                            <mxPoint x="545" y="180"/>
                        </Array>
                        <mxPoint as="offset"/>
                    </mxGeometry>
                </mxCell>
                <mxCell id="flow3" value="&lt;font style=&quot;color: rgb(0, 102, 204);&quot;&gt;ดูข้อมูลนักศึกษา&lt;/font&gt;&lt;div&gt;&lt;font style=&quot;color: rgb(0, 102, 204);&quot;&gt;และดูแผนการเรียนของนักศึกษา&lt;/font&gt;&lt;br&gt;&lt;/div&gt;" style="edgeStyle=orthogonalEdgeStyle;rounded=0;orthogonalLoop=1;jettySize=auto;html=1;exitX=0.5;exitY=1;exitDx=0;exitDy=0;fontSize=10;fontColor=#0066CC;entryX=0.004;entryY=0.578;entryDx=0;entryDy=0;entryPerimeter=0;" parent="1" source="instructor" target="system" edge="1">
                    <mxGeometry x="-0.0005" relative="1" as="geometry">
                        <Array as="points">
                            <mxPoint x="210" y="420"/>
                            <mxPoint x="485" y="420"/>
                        </Array>
                        <mxPoint x="490" y="430" as="targetPoint"/>
                        <mxPoint as="offset"/>
                    </mxGeometry>
                </mxCell>
                <mxCell id="flow4" value="รายงานสถิติ&#xa;ข้อมูลนักศึกษา&#xa;รายละเอียดนักศึกษา" style="edgeStyle=orthogonalEdgeStyle;rounded=0;orthogonalLoop=1;jettySize=auto;html=1;exitX=0.068;exitY=0.25;exitDx=0;exitDy=0;fontSize=10;fontColor=#CC0000;exitPerimeter=0;entryX=1;entryY=0.5;entryDx=0;entryDy=0;" parent="1" source="system" target="instructor" edge="1">
                    <mxGeometry x="0.1151" relative="1" as="geometry">
                        <Array as="points"/>
                        <mxPoint as="offset"/>
                        <mxPoint x="270" y="380" as="targetPoint"/>
                    </mxGeometry>
                </mxCell>
                <mxCell id="flow5" value="จัดการข้อมูลรายวิชา&#xa;กำหนดเงื่อนไข" style="edgeStyle=orthogonalEdgeStyle;rounded=0;orthogonalLoop=1;jettySize=auto;html=1;exitX=0.5;exitY=0;exitDx=0;exitDy=0;fontSize=10;fontColor=#0066CC;" parent="1" source="staff" edge="1">
                    <mxGeometry x="-0.0013" relative="1" as="geometry">
                        <Array as="points">
                            <mxPoint x="210" y="470"/>
                            <mxPoint x="500" y="470"/>
                        </Array>
                        <mxPoint x="500" y="440" as="targetPoint"/>
                        <mxPoint as="offset"/>
                    </mxGeometry>
                </mxCell>
                <mxCell id="flow6" value="บันทึกเหตุการณ์&#xa;รายงานระบบ" style="edgeStyle=orthogonalEdgeStyle;rounded=0;orthogonalLoop=1;jettySize=auto;html=1;entryX=1;entryY=0.75;entryDx=0;entryDy=0;fontSize=10;fontColor=#CC0000;exitX=0.25;exitY=1;exitDx=0;exitDy=0;" parent="1" source="system" target="staff" edge="1">
                    <mxGeometry relative="1" as="geometry">
                        <Array as="points">
                            <mxPoint x="539" y="490"/>
                            <mxPoint x="539" y="490"/>
                            <mxPoint x="539" y="520"/>
                            <mxPoint x="400" y="520"/>
                            <mxPoint x="400" y="565"/>
                        </Array>
                    </mxGeometry>
                </mxCell>
                <mxCell id="flow7" value="ยืนยันตัวตน&#xa;จัดเก็บข้อมูล" style="edgeStyle=orthogonalEdgeStyle;rounded=0;orthogonalLoop=1;jettySize=auto;html=1;exitX=0.707;exitY=0.032;exitDx=0;exitDy=0;fontSize=10;fontColor=#0066CC;exitPerimeter=0;" parent="1" source="system" edge="1">
                    <mxGeometry relative="1" as="geometry">
                        <Array as="points">
                            <mxPoint x="625" y="300"/>
                            <mxPoint x="799" y="300"/>
                        </Array>
                        <mxPoint x="799" y="300" as="targetPoint"/>
                    </mxGeometry>
                </mxCell>
                <mxCell id="flow8" value="ข้อมูลผู้ใช้&#xa;ข้อมูลหลักสูตร" style="edgeStyle=orthogonalEdgeStyle;rounded=0;orthogonalLoop=1;jettySize=auto;html=1;exitX=0;exitY=0.75;exitDx=0;exitDy=0;entryX=1;entryY=0;entryDx=0;entryDy=0;fontSize=10;fontColor=#CC0000;" parent="1" source="firebase" target="system" edge="1">
                    <mxGeometry relative="1" as="geometry">
                        <Array as="points">
                            <mxPoint x="700" y="340"/>
                            <mxPoint x="700" y="350"/>
                            <mxPoint x="655" y="350"/>
                        </Array>
                    </mxGeometry>
                </mxCell>
                <mxCell id="flow9" value="คำถาม/คำสั่ง&#xa;แชทบอท" style="edgeStyle=orthogonalEdgeStyle;rounded=0;orthogonalLoop=1;jettySize=auto;html=1;exitX=1;exitY=0.75;exitDx=0;exitDy=0;entryX=0;entryY=0.25;entryDx=0;entryDy=0;fontSize=10;fontColor=#0066CC;" parent="1" source="system" target="n8n" edge="1">
                    <mxGeometry relative="1" as="geometry">
                        <Array as="points">
                            <mxPoint x="750" y="440"/>
                            <mxPoint x="750" y="470"/>
                        </Array>
                    </mxGeometry>
                </mxCell>
                <mxCell id="flow10" value="คำตอบ/ข้อมูล&#xa;หลักสูตร" style="edgeStyle=orthogonalEdgeStyle;rounded=0;orthogonalLoop=1;jettySize=auto;html=1;exitX=0;exitY=0.75;exitDx=0;exitDy=0;entryX=0.747;entryY=0.926;entryDx=0;entryDy=0;fontSize=10;fontColor=#CC0000;entryPerimeter=0;" parent="1" source="n8n" target="system" edge="1">
                    <mxGeometry relative="1" as="geometry">
                        <Array as="points">
                            <mxPoint x="700" y="510"/>
                            <mxPoint x="700" y="500"/>
                            <mxPoint x="633" y="500"/>
                        </Array>
                    </mxGeometry>
                </mxCell>
                <mxCell id="flow11" value="จัดการผู้ใช้ ดูสถิติระบบ&lt;br&gt;ประวัติการใช้งาน และ&lt;span style=&quot;color: rgb(0, 102, 204);&quot;&gt;จัดการข้อมูลรายวิชา&lt;/span&gt;&lt;br&gt;&lt;span style=&quot;color: rgb(0, 102, 204);&quot;&gt;กำหนดเงื่อนไข&lt;/span&gt;" style="edgeStyle=orthogonalEdgeStyle;rounded=0;orthogonalLoop=1;jettySize=auto;html=1;exitX=1;exitY=0.5;exitDx=0;exitDy=0;entryX=0.5;entryY=1;entryDx=0;entryDy=0;fontSize=10;fontColor=#0066CC;" edge="1" parent="1" source="admin" target="system">
                    <mxGeometry x="-0.3774" relative="1" as="geometry">
                        <Array as="points">
                            <mxPoint x="584" y="670"/>
                        </Array>
                        <mxPoint as="offset"/>
                    </mxGeometry>
                </mxCell>
                <mxCell id="flow12" value="รายงานระบบ&#xa;สถิติการใช้งาน" style="edgeStyle=orthogonalEdgeStyle;rounded=0;orthogonalLoop=1;jettySize=auto;html=1;exitX=0.345;exitY=0.972;exitDx=0;exitDy=0;entryX=0.5;entryY=0;entryDx=0;entryDy=0;fontSize=10;fontColor=#CC0000;exitPerimeter=0;" edge="1" parent="1" source="system" target="admin">
                    <mxGeometry relative="1" as="geometry">
                        <Array as="points">
                            <mxPoint x="554" y="467"/>
                            <mxPoint x="554" y="620"/>
                            <mxPoint x="210" y="620"/>
                        </Array>
                    </mxGeometry>
                </mxCell>
                <mxCell id="title" value="แผนภาพบริบท (Context Diagram)&lt;br&gt;ระบบแนะนำหลักสูตรภาควิชาเทคโนโลยี สารสนเทศด้วย Chatbot" style="text;html=1;strokeColor=none;fillColor=none;align=center;verticalAlign=middle;whiteSpace=wrap;rounded=0;fontSize=16;fontStyle=1;" parent="1" vertex="1">
                    <mxGeometry x="350" y="80" width="470" height="60" as="geometry"/>
                </mxCell>
                <mxCell id="2" value="" style="group" parent="1" vertex="1" connectable="0">
                    <mxGeometry x="150" y="720" width="300" height="120" as="geometry"/>
                </mxCell>
                <mxCell id="legend-bg" value="" style="rounded=1;whiteSpace=wrap;html=1;fillColor=#f8f9fa;strokeColor=#dee2e6;strokeWidth=2;" parent="2" vertex="1">
                    <mxGeometry width="300" height="120" as="geometry"/>
                </mxCell>
                <mxCell id="legend-title" value="คำอธิบาย (Legend)" style="text;html=1;strokeColor=none;fillColor=none;align=left;verticalAlign=middle;whiteSpace=wrap;rounded=0;fontSize=12;fontStyle=1;" parent="2" vertex="1">
                    <mxGeometry x="10" y="10" width="120" height="20" as="geometry"/>
                </mxCell>
                <mxCell id="legend-users" value="ผู้ใช้งาน (Users)" style="rounded=1;whiteSpace=wrap;html=1;fillColor=#d5e8d4;strokeColor=#82b366;fontSize=10;" parent="2" vertex="1">
                    <mxGeometry x="10" y="40" width="80" height="25" as="geometry"/>
                </mxCell>
                <mxCell id="legend-system" value="ระบบหลัก" style="ellipse;whiteSpace=wrap;html=1;fillColor=#e1d5e7;strokeColor=#9673a6;fontSize=10;" parent="2" vertex="1">
                    <mxGeometry x="10" y="75" width="80" height="35" as="geometry"/>
                </mxCell>
                <mxCell id="legend-external" value="บริการภายนอก" style="rounded=1;whiteSpace=wrap;html=1;fillColor=#fff2cc;strokeColor=#d6b656;fontSize=10;" parent="2" vertex="1">
                    <mxGeometry x="110" y="40" width="80" height="25" as="geometry"/>
                </mxCell>
                <mxCell id="legend-input" value="ข้อมูลเข้า" style="text;html=1;strokeColor=none;fillColor=none;align=left;verticalAlign=middle;whiteSpace=wrap;rounded=0;fontSize=10;fontColor=#0066CC;" parent="2" vertex="1">
                    <mxGeometry x="110" y="75" width="60" height="15" as="geometry"/>
                </mxCell>
                <mxCell id="legend-output" value="ข้อมูลออก" style="text;html=1;strokeColor=none;fillColor=none;align=left;verticalAlign=middle;whiteSpace=wrap;rounded=0;fontSize=10;fontColor=#CC0000;" parent="2" vertex="1">
                    <mxGeometry x="110" y="95" width="60" height="15" as="geometry"/>
                </mxCell>
            </root>
        </mxGraphModel>
    </diagram>
</mxfile>